<svg xmlns="http://www.w3.org/2000/svg" data-name="Layer 1" viewBox="0 0 68 85" x="0px" y="0px">
  <path d="M53.15,61.54H14.85a1,1,0,0,1-1-1,20,20,0,0,1,5.86-14.19,1,1,0,0,1,.7-.3H47.6a1,1,0,0,1,.71.3,20,20,0,0,1,5.84,14.19A1,1,0,0,1,53.15,61.54Zm-37.27-2H52.12a17.94,17.94,0,0,0-4.95-11.49H20.84A18,18,0,0,0,15.88,59.54Z"/>
  <path d="M44.81,43.58a.71.71,0,0,1-.29,0,1,1,0,0,1-.66-1.25C48.25,28.22,48.09,17.41,43.4,11,40.15,6.6,34.79,4.25,27.45,4l.85,4.19a1,1,0,0,1-2,.4L25.24,3.2a1,1,0,0,1,.21-.83A1,1,0,0,1,26.22,2c8.65,0,15,2.64,18.79,7.84,5.16,7,5.41,18.13.76,33A1,1,0,0,1,44.81,43.58Z"/>
  <path d="M44.81,43.58H23.19a1,1,0,0,1-.73-.32,1,1,0,0,1-.27-.75c.35-5.25,2.34-11,6.08-17.6a16.13,16.13,0,0,0-6,3.38A5.28,5.28,0,0,1,15,28.1a6.19,6.19,0,0,1-1.84-4.39V22.23a6.25,6.25,0,0,1,.61-2.68c1.93-4.08,6.94-8.69,13.06-12a1,1,0,0,1,.66-.1c7.42,1.38,12.58,4.37,15.8,9.14,4,6,4.85,14.55,2.49,26.21A1,1,0,0,1,44.81,43.58Zm-20.53-2H44c2-10.69,1.28-18.51-2.35-23.9-2.85-4.22-7.48-6.91-14.16-8.22-5.62,3.12-10.16,7.29-11.9,11a4.43,4.43,0,0,0-.41,1.82v1.48a4.2,4.2,0,0,0,1.25,3,3.28,3.28,0,0,0,4.5.13,16.68,16.68,0,0,1,8.7-4.18c.93-1.53,2-3.12,3.07-4.71a1,1,0,1,1,1.64,1.13c-1.19,1.72-2.29,3.42-3.27,5.05h0C27.13,30.62,24.86,36.49,24.28,41.58Z"/>
  <path d="M47.6,48.05H20.4a1,1,0,0,1-1-1V44.56a3,3,0,0,1,3-3H45.62a3,3,0,0,1,3,3v2.49A1,1,0,0,1,47.6,48.05Zm-26.2-2H46.6V44.56a1,1,0,0,0-1-1H22.38a1,1,0,0,0-1,1Z"/>
  <path d="M53.77,66H14.23a3.24,3.24,0,1,1,0-6.47H53.77A3.24,3.24,0,0,1,57,62.77,3.24,3.24,0,0,1,53.77,66ZM14.23,61.53A1.23,1.23,0,0,0,13,62.77,1.23,1.23,0,0,0,14.23,64H53.77a1.23,1.23,0,0,0,.87-.36,1.2,1.2,0,0,0,.36-.87,1.23,1.23,0,0,0-1.23-1.24Z"/>
  <path d="M28.05,15.63a1,1,0,0,1-.7-.29.53.53,0,0,0-.75,0,1,1,0,0,1-1.42-1.42,2.54,2.54,0,0,1,3.58,0,1,1,0,0,1,0,1.41A1,1,0,0,1,28.05,15.63Z"/>
</svg>